# xmcd
#
# Track frame offsets: 
#        150
#        21608
#        38006
#        60811
#        79769
#        98539
#        122301
#        139662
#        157666
#        174387
#        194865
#
# Disc length: 2890 seconds
#
# Revision: 1
# Processed by: cddbd v1.5.2PL0 Copyright (c) Steve Scherf et al.
# Submitted via: ExactAudioCopy v1.1
#
DISCID=7e0b480b
DTITLE=AI - THE LAST A.I.
DYEAR=2010
DGENRE=Rhythmic Soul
TTITLE0=FAKE  feat. 安室奈美恵
TTITLE1=Let it go  feat. Snoop Dogg
TTITLE2=STRONGER  feat. 加藤ミリア
TTITLE3=Still...  feat. AK-69
TTITLE4=For my Sister  feat. Judith Hill -English Version-
TTITLE5=Incomplete  feat. Boyz ⅡMen
TTITLE6=One More Try  feat. Chaka Khan
TTITLE7=Family
TTITLE8=眠れない街
TTITLE9=K'NAAN - Wavin' Flag -Coca Cola Celebration Mix with AI
TTITLE10=Through the fire - AI with Chaka Khan -Bonus Track-
EXTD=YEAR: 2010
EXTT0=
EXTT1=
EXTT2=
EXTT3=
EXTT4=
EXTT5=
EXTT6=
EXTT7=
EXTT8=
EXTT9=
EXTT10=
PLAYORDER=
